<?xml version="1.0" encoding="UTF-8"?>
<svg id="Layer_1" data-name="Layer 1" xmlns="http://www.w3.org/2000/svg" viewBox="0 0 350 75">
  <defs>
    <style>
      .cls-1 {
        fill: #e4574e;
      }
    </style>
  </defs>
  <path class="cls-1" d="M24.18,15.39l.16,8.34H1.59c-.27-.43-.51-1-.73-1.7-.22-.7-.32-1.48-.32-2.35,0-1.46.32-2.54.97-3.24.65-.7,1.54-1.05,2.67-1.05h20ZM15.35,21.55h10.2v42.84c-.43.16-1.09.31-1.98.45-.89.13-1.8.2-2.71.2-2,0-3.41-.36-4.25-1.09s-1.26-1.96-1.26-3.69V21.55ZM16.98,23.73l-.24-8.34h22.76c.27.38.51.93.73,1.66s.32,1.5.32,2.31c0,1.4-.32,2.48-.97,3.24-.65.76-1.54,1.13-2.67,1.13h-19.92Z"/>
  <path class="cls-1" d="M58.11,48.76l-9.96-.49V11.91c.38-.11.98-.24,1.82-.4s1.71-.24,2.63-.24c1.94,0,3.35.34,4.21,1.01.86.68,1.29,1.88,1.29,3.6v32.88ZM48.15,43.17l9.96.49v20.73c-.43.16-1.05.31-1.86.45-.81.13-1.7.2-2.67.2-1.84,0-3.2-.34-4.09-1.01-.89-.67-1.34-1.87-1.34-3.6v-17.25Z"/>
  <path class="cls-1" d="M83.62,25.11c5.29,0,9.5,1.12,12.63,3.36,3.13,2.24,4.7,5.76,4.7,10.57v18.63c0,1.29-.31,2.32-.93,3.08-.62.76-1.42,1.43-2.39,2.02-1.51.87-3.43,1.58-5.75,2.15s-4.94.85-7.86.85c-5.4,0-9.64-1.04-12.72-3.12-3.08-2.08-4.62-5.17-4.62-9.27,0-3.62,1.15-6.38,3.44-8.3,2.29-1.92,5.63-3.09,10-3.52l11.01-1.13v-1.46c0-2.16-.74-3.73-2.23-4.7s-3.58-1.46-6.28-1.46c-2.11,0-4.16.27-6.15.81-2,.54-3.78,1.19-5.35,1.94-.54-.43-1.03-1.03-1.46-1.78-.43-.76-.65-1.54-.65-2.35,0-1.94,1.08-3.37,3.24-4.29,1.51-.7,3.28-1.22,5.3-1.54,2.02-.32,4.04-.49,6.03-.49ZM84.03,58.15c1.62,0,3.08-.16,4.37-.49,1.3-.32,2.24-.68,2.83-1.05v-9.23l-8.02.81c-2.22.16-3.9.64-5.06,1.42-1.16.78-1.74,1.93-1.74,3.44s.62,2.81,1.86,3.73c1.24.92,3.16,1.38,5.75,1.38Z"/>
  <path class="cls-1" d="M121.28,48.27h-9.96V11.91c.43-.11,1.05-.24,1.86-.4s1.7-.24,2.67-.24c1.89,0,3.27.34,4.13,1.01.86.68,1.3,1.88,1.3,3.6v32.39ZM111.32,43.17h9.96v21.22c-.43.16-1.05.31-1.86.45-.81.13-1.7.2-2.67.2-1.84,0-3.2-.34-4.09-1.01-.89-.67-1.34-1.87-1.34-3.6v-17.25ZM146.71,48.19h-9.96v-7.29c0-2.75-.74-4.75-2.23-5.99-1.49-1.24-3.36-1.86-5.63-1.86-1.84,0-3.52.35-5.06,1.05-1.54.7-2.87,1.51-4.01,2.43l-.57-8.1c1.24-.76,2.83-1.5,4.78-2.23,1.94-.73,4.13-1.09,6.56-1.09,4.86,0,8.76,1.27,11.7,3.81,2.94,2.54,4.41,6.37,4.41,11.5v7.78ZM136.75,43.25h9.96v21.14c-.43.16-1.07.31-1.9.45-.84.13-1.71.2-2.63.2-1.89,0-3.27-.34-4.13-1.01-.86-.67-1.3-1.87-1.3-3.6v-17.17Z"/>
  <path class="cls-1" d="M167.12,45.36h-9.96v-29.16c.43-.16,1.07-.32,1.9-.49s1.71-.24,2.63-.24c1.89,0,3.27.34,4.13,1.01.86.68,1.3,1.88,1.3,3.6v25.27ZM157.16,43.17h9.96v9.56c0,1.78.53,3.05,1.58,3.81,1.05.76,2.55,1.13,4.49,1.13.86,0,1.79-.11,2.79-.32,1-.21,1.85-.49,2.55-.81.38.43.73.95,1.05,1.54.32.59.49,1.32.49,2.19,0,1.57-.74,2.86-2.23,3.89-1.49,1.02-3.79,1.54-6.92,1.54-4.27,0-7.63-.96-10.08-2.88-2.46-1.92-3.68-5.03-3.68-9.35v-10.29ZM163.23,34.91v-7.86h15.87c.21.38.44.92.69,1.62.24.7.36,1.43.36,2.19,0,1.35-.32,2.36-.97,3.04s-1.49,1.01-2.51,1.01h-13.44Z"/>
  <path class="cls-1" d="M224.94,45.36c0,4.16-.81,7.76-2.43,10.81-1.62,3.05-3.9,5.4-6.84,7.05-2.94,1.65-6.41,2.47-10.41,2.47s-7.48-.82-10.45-2.47c-2.97-1.65-5.28-3.98-6.92-7-1.65-3.02-2.47-6.64-2.47-10.85s.84-7.75,2.51-10.77c1.67-3.02,3.99-5.36,6.97-7.01,2.97-1.65,6.42-2.47,10.37-2.47s7.38.82,10.33,2.47c2.94,1.65,5.24,4,6.88,7.05,1.65,3.05,2.47,6.63,2.47,10.73ZM205.26,33.05c-2.97,0-5.3,1.08-7,3.24-1.7,2.16-2.55,5.18-2.55,9.07s.84,7.06,2.51,9.19c1.67,2.13,4.02,3.2,7.05,3.2s5.29-1.08,6.96-3.24c1.67-2.16,2.51-5.21,2.51-9.15s-.84-6.84-2.51-9.03c-1.67-2.19-3.99-3.28-6.96-3.28Z"/>
  <path class="cls-1" d="M243.97,48.76l-9.96-.49V11.91c.38-.11.98-.24,1.82-.4s1.71-.24,2.63-.24c1.94,0,3.35.34,4.21,1.01.86.68,1.29,1.88,1.29,3.6v32.88ZM234.01,43.17l9.96.49v20.73c-.43.16-1.05.31-1.86.45-.81.13-1.7.2-2.67.2-1.84,0-3.2-.34-4.09-1.01-.89-.67-1.34-1.87-1.34-3.6v-17.25Z"/>
  <path class="cls-1" d="M265.51,48.76l-9.96-.49V11.91c.38-.11.98-.24,1.82-.4s1.71-.24,2.63-.24c1.94,0,3.35.34,4.21,1.01.86.68,1.29,1.88,1.29,3.6v32.88ZM255.55,43.17l9.96.49v20.73c-.43.16-1.05.31-1.86.45-.81.13-1.7.2-2.67.2-1.84,0-3.2-.34-4.09-1.01-.89-.67-1.34-1.87-1.34-3.6v-17.25Z"/>
  <path class="cls-1" d="M275.96,14.82c0-1.56.55-2.89,1.66-3.97,1.11-1.08,2.5-1.62,4.17-1.62s3.12.54,4.17,1.62c1.05,1.08,1.58,2.4,1.58,3.97s-.53,2.82-1.58,3.93c-1.05,1.11-2.44,1.66-4.17,1.66s-3.06-.55-4.17-1.66c-1.11-1.11-1.66-2.42-1.66-3.93ZM286.81,48.27h-10.04v-21.7c.43-.16,1.07-.31,1.9-.45s1.74-.2,2.71-.2c1.89,0,3.27.34,4.13,1.01.86.68,1.29,1.9,1.29,3.69v17.65ZM276.77,43.17h10.04v21.22c-.43.16-1.05.31-1.86.45-.81.13-1.7.2-2.67.2-1.84,0-3.21-.34-4.13-1.01-.92-.67-1.38-1.87-1.38-3.6v-17.25Z"/>
  <path class="cls-1" d="M336.74,64.32h-39.53v-20.26c0-7.02,5.71-12.73,12.73-12.73h26.8c7.02,0,12.73,5.71,12.73,12.73v7.53c0,7.02-5.71,12.73-12.73,12.73ZM302.24,59.28h34.49c4.24,0,7.7-3.45,7.7-7.7v-7.53c0-4.24-3.45-7.7-7.7-7.7h-26.8c-4.24,0-7.7,3.45-7.7,7.7v15.22Z"/>
  <path class="cls-1" d="M313.93,52.51c0-.43.13-.79.4-1.09.27-.29.64-.44,1.11-.44s.84.15,1.11.44c.27.29.4.66.4,1.09s-.13.79-.4,1.09c-.27.29-.64.44-1.11.44s-.84-.15-1.11-.44c-.27-.29-.4-.66-.4-1.09Z"/>
  <path class="cls-1" d="M322.32,43.94c1.32,0,2.36.28,3.14.84.78.56,1.17,1.43,1.17,2.63v4.63c0,.32-.08.58-.23.76-.15.19-.35.36-.59.5-.38.21-.85.39-1.43.53-.58.14-1.23.21-1.95.21-1.34,0-2.4-.26-3.16-.78-.77-.52-1.15-1.28-1.15-2.31,0-.9.29-1.59.86-2.06s1.4-.77,2.49-.88l2.74-.28v-.36c0-.54-.19-.93-.55-1.17-.37-.24-.89-.36-1.56-.36-.52,0-1.03.07-1.53.2s-.94.29-1.33.48c-.13-.11-.25-.26-.36-.44-.11-.19-.16-.38-.16-.58,0-.48.27-.84.81-1.07.38-.17.82-.3,1.32-.38.5-.08,1-.12,1.5-.12ZM322.42,52.15c.4,0,.77-.04,1.09-.12.32-.08.56-.17.7-.26v-2.3l-1.99.2c-.55.04-.97.16-1.26.35s-.43.48-.43.86.15.7.46.93c.31.23.79.34,1.43.34Z"/>
  <path class="cls-1" d="M329.05,41.38c0-.39.14-.72.41-.99s.62-.4,1.04-.4.78.13,1.04.4c.26.27.39.6.39.99s-.13.7-.39.98c-.26.28-.61.41-1.04.41s-.76-.14-1.04-.41-.41-.6-.41-.98ZM331.74,49.7h-2.5v-5.4c.11-.04.26-.08.47-.11.21-.03.43-.05.67-.05.47,0,.81.08,1.03.25.21.17.32.47.32.92v4.39ZM329.25,48.43h2.5v5.27c-.11.04-.26.08-.46.11-.2.03-.42.05-.66.05-.46,0-.8-.09-1.03-.25-.23-.17-.34-.47-.34-.9v-4.29Z"/>
</svg>